<?xml version="1.0" encoding="utf-8"?>
<!-- Generator: Adobe Illustrator 15.1.0, SVG Export Plug-In . SVG Version: 6.00 Build 0)  -->
<!DOCTYPE svg PUBLIC "-//W3C//DTD SVG 1.1//EN" "http://www.w3.org/Graphics/SVG/1.1/DTD/svg11.dtd">
<svg version="1.1" id="Layer_1" xmlns="http://www.w3.org/2000/svg" xmlns:xlink="http://www.w3.org/1999/xlink" x="0px" y="0px"
	 width="56.693px" height="28.346px" viewBox="0 0 56.693 28.346" enable-background="new 0 0 56.693 28.346" xml:space="preserve">
<g>
	<path fill="#A6A8AB" d="M47.85,12.652c-0.871,0.827-1.958,1.24-3.268,1.24h-1.855V5.354h2.412c1.274,0,2.266,0.354,2.966,1.061
		s1.05,1.662,1.05,2.864C49.155,10.7,48.719,11.825,47.85,12.652 M56.62,23.134c-0.246-0.01-0.554-0.047-0.922-0.113
		c-0.37-0.063-0.677-0.158-0.923-0.278c-0.332-0.168-0.665-0.388-1-0.652c-0.337-0.271-0.712-0.682-1.129-1.242
		c-0.955-1.271-1.766-2.354-2.42-3.244c-0.657-0.891-1.482-1.981-2.479-3.288c0.723-0.205,1.377-0.457,1.977-0.751
		c0.596-0.294,1.104-0.644,1.529-1.046c0.465-0.431,0.813-0.938,1.054-1.529c0.232-0.591,0.354-1.27,0.354-2.035
		c0-0.854-0.175-1.58-0.521-2.186c-0.354-0.604-0.818-1.093-1.404-1.468c-0.606-0.384-1.282-0.662-2.029-0.835
		c-0.748-0.173-1.547-0.26-2.396-0.26h-9.3v0.997c0.268,0.019,0.59,0.062,0.968,0.133c0.379,0.069,0.686,0.146,0.923,0.229
		c0.35,0.134,0.572,0.323,0.666,0.576c0.095,0.253,0.143,0.543,0.143,0.871v14.41c0,0.365-0.062,0.664-0.188,0.896
		c-0.128,0.232-0.334,0.41-0.617,0.533C38.73,22.927,38.43,22.99,38,23.036c-0.43,0.047-0.759,0.08-0.983,0.1v0.996h8.515v-0.996
		c-0.294-0.01-0.653-0.043-1.079-0.1c-0.425-0.06-0.724-0.117-0.894-0.185c-0.344-0.131-0.563-0.317-0.667-0.565
		c-0.104-0.248-0.156-0.537-0.156-0.863v-6.32h2.062c1.136,1.441,2.188,2.842,3.154,4.199s2.053,2.967,3.254,4.83h5.422v-0.998
		H56.62z"/>
	<path fill="#A6A8AB" d="M25.039,22.214c-0.667,0.295-1.345,0.441-2.037,0.441c-1.229,0-2.211-0.421-2.941-1.259
		c-0.733-0.838-1.103-1.895-1.103-3.168c0-0.905,0.159-1.715,0.478-2.422c0.313-0.707,0.856-1.323,1.625-1.848
		c0.662,0.908,1.544,2.021,2.646,3.336c1.104,1.313,2.093,2.523,2.975,3.631C26.252,21.49,25.706,21.919,25.039,22.214
		 M24.928,10.15c-0.431,0.634-1.131,1.222-2.101,1.765c-0.718-0.938-1.248-1.734-1.588-2.396c-0.341-0.661-0.51-1.312-0.51-1.959
		c0-0.231,0.042-0.501,0.127-0.801c0.085-0.299,0.222-0.58,0.411-0.842c0.208-0.271,0.458-0.496,0.75-0.674
		c0.292-0.181,0.66-0.27,1.104-0.27c0.783,0,1.39,0.255,1.812,0.769c0.425,0.51,0.637,1.24,0.637,2.195
		C25.571,8.781,25.356,9.518,24.928,10.15 M35.603,11.505h-7.591v0.997c0.772,0.16,1.383,0.326,1.82,0.499
		c0.44,0.173,0.66,0.41,0.66,0.709c0,0.674-0.174,1.454-0.521,2.338c-0.352,0.885-0.842,1.828-1.474,2.83
		c-0.785-0.945-1.602-1.908-2.453-2.887c-0.851-0.979-1.72-2.062-2.605-3.251c1.232-0.646,2.204-1.374,2.907-2.187
		c0.701-0.81,1.055-1.776,1.055-2.897c0-0.471-0.088-0.938-0.263-1.404c-0.178-0.468-0.431-0.88-0.762-1.235
		c-0.357-0.384-0.823-0.692-1.396-0.934s-1.237-0.358-1.994-0.358c-0.643,0-1.276,0.104-1.901,0.312s-1.151,0.489-1.589,0.854
		c-0.473,0.402-0.839,0.873-1.1,1.411c-0.26,0.539-0.393,1.13-0.393,1.777c0,0.905,0.215,1.727,0.641,2.458
		c0.426,0.729,1.021,1.596,1.788,2.597c-1.693,1.059-2.853,2.057-3.472,2.999c-0.617,0.941-0.93,1.992-0.93,3.152
		c0,0.938,0.171,1.739,0.512,2.416c0.343,0.674,0.785,1.227,1.334,1.655c0.567,0.439,1.196,0.763,1.89,0.961
		c0.688,0.201,1.385,0.306,2.086,0.306c0.672,0,1.256-0.08,1.752-0.24c0.497-0.158,0.991-0.377,1.48-0.658
		c0.445-0.264,0.868-0.574,1.271-0.936c0.398-0.359,0.759-0.709,1.071-1.045l2.111,2.387h5.851v-0.996
		c-0.444-0.02-1.017-0.104-1.709-0.254c-0.694-0.148-1.231-0.332-1.608-0.547c-0.388-0.234-0.854-0.615-1.404-1.146
		c-0.548-0.526-1.011-1.02-1.389-1.469c0.463-0.58,0.84-1.16,1.133-1.74s0.58-1.17,0.863-1.77c0.283-0.603,0.526-1.119,0.729-1.562
		c0.203-0.438,0.404-0.771,0.604-0.997c0.304-0.375,0.739-0.646,1.306-0.819c0.567-0.173,1.131-0.283,1.688-0.33L35.603,11.505
		L35.603,11.505z"/>
	<path fill="#A6A8AB" d="M11.218,13.906c-0.522-0.312-1.069-0.584-1.639-0.829c-0.625-0.271-1.271-0.526-1.938-0.768
		s-1.349-0.521-2.037-0.85c-0.775-0.365-1.367-0.831-1.774-1.397C3.423,9.499,3.22,8.785,3.22,7.924
		c0-0.824,0.314-1.521,0.948-2.092c0.637-0.571,1.4-0.857,2.302-0.857c0.851,0,1.567,0.162,2.154,0.484
		c0.586,0.323,1.083,0.756,1.491,1.299C10.532,7.32,10.87,7.948,11.13,8.64c0.263,0.693,0.494,1.418,0.702,2.177h1.15L12.87,4.204
		h-1.135l-0.582,0.954c-0.605-0.374-1.275-0.701-2.008-0.982c-0.733-0.281-1.563-0.421-2.49-0.421c-0.813,0-1.594,0.138-2.341,0.414
		C3.566,4.444,2.918,4.825,2.37,5.312C1.792,5.827,1.348,6.412,1.036,7.066c-0.312,0.656-0.468,1.362-0.468,2.12
		c0,1.319,0.312,2.392,0.943,3.208c0.629,0.819,1.512,1.481,2.646,1.986c0.577,0.261,1.263,0.539,2.058,0.832
		c0.794,0.295,1.499,0.562,2.115,0.805c0.898,0.357,1.575,0.879,2.029,1.568c0.454,0.688,0.681,1.432,0.681,2.229
		c0,0.545-0.073,1.025-0.22,1.441c-0.147,0.418-0.372,0.781-0.674,1.09c-0.306,0.312-0.697,0.549-1.188,0.719
		c-0.485,0.168-1.058,0.252-1.71,0.252c-0.871,0-1.634-0.164-2.292-0.489c-0.658-0.326-1.229-0.771-1.724-1.32
		c-0.521-0.588-0.939-1.223-1.256-1.9c-0.317-0.68-0.597-1.438-0.83-2.281H0l0.199,6.822h1.135l0.61-1.021
		c0.653,0.393,1.429,0.727,2.328,1.002c0.896,0.274,1.797,0.416,2.693,0.416c1.949,0,3.581-0.572,4.896-1.715
		c1.314-1.144,1.972-2.595,1.972-4.354c0-0.74-0.102-1.389-0.305-1.944c-0.204-0.558-0.518-1.068-0.944-1.537
		C12.198,14.575,11.742,14.216,11.218,13.906"/>
</g>
</svg>
